<?xml version="1.0" encoding="UTF-8" standalone="no"?>
<!-- Created with Inkscape (http://www.inkscape.org/) -->

<svg
   xmlns:dc="http://purl.org/dc/elements/1.1/"
   xmlns:cc="http://creativecommons.org/ns#"
   xmlns:rdf="http://www.w3.org/1999/02/22-rdf-syntax-ns#"
   xmlns:svg="http://www.w3.org/2000/svg"
   xmlns="http://www.w3.org/2000/svg"
   xmlns:sodipodi="http://sodipodi.sourceforge.net/DTD/sodipodi-0.dtd"
   xmlns:inkscape="http://www.inkscape.org/namespaces/inkscape"
   width="48.211922mm"
   height="46.073799mm"
   viewBox="0 0 48.211922 46.073799"
   version="1.1"
   id="svg8"
   inkscape:version="0.92.4 (5da689c313, 2019-01-14)"
   sodipodi:docname="brand.svg">
  <defs
     id="defs2" />
  <sodipodi:namedview
     id="base"
     pagecolor="#ffffff"
     bordercolor="#666666"
     borderopacity="1.0"
     inkscape:pageopacity="0.0"
     inkscape:pageshadow="2"
     inkscape:zoom="0.98994949"
     inkscape:cx="92.937216"
     inkscape:cy="101.86046"
     inkscape:document-units="mm"
     inkscape:current-layer="layer1"
     showgrid="false"
     fit-margin-top="0"
     fit-margin-left="0"
     fit-margin-right="0"
     fit-margin-bottom="0"
     inkscape:window-width="1366"
     inkscape:window-height="705"
     inkscape:window-x="-8"
     inkscape:window-y="-8"
     inkscape:window-maximized="1" />
  <metadata
     id="metadata5">
    <rdf:RDF>
      <cc:Work
         rdf:about="">
        <dc:format>image/svg+xml</dc:format>
        <dc:type
           rdf:resource="http://purl.org/dc/dcmitype/StillImage" />
        <dc:title></dc:title>
      </cc:Work>
    </rdf:RDF>
  </metadata>
  <g
     inkscape:label="Layer 1"
     inkscape:groupmode="layer"
     id="layer1"
     transform="translate(-72.052523,-113.37667)">
    <g
       id="g4535">
      <circle
         r="7.2162771"
         cy="136.41357"
         cx="96.693024"
         id="path4520"
         style="opacity:0.91300001;fill:#f9f9f9;fill-opacity:1;stroke:#f9f9f9;stroke-width:0;stroke-miterlimit:4;stroke-dasharray:none;stroke-dashoffset:0;stroke-opacity:1" />
      <path
         sodipodi:nodetypes="ccccscc"
         inkscape:connector-curvature="0"
         id="path4522"
         d="m 90.912171,124.17012 4.987218,-10.26708 c 0.388005,-0.64345 1.277965,-0.76371 1.802719,0.0162 l 5.051462,10.61389 c 0,0 0.1163,0.86806 -0.73972,0.92294 -2.264684,0.14516 -7.38259,-0.066 -10.695194,-0.0545 -0.913909,8.9e-4 -0.779809,-0.62744 -0.406485,-1.23147 z"
         style="fill:#f9f9f9;stroke:#f9f9f9;stroke-width:0;stroke-linecap:butt;stroke-linejoin:miter;stroke-miterlimit:4;stroke-dasharray:none;stroke-opacity:1" />
      <path
         style="fill:#f9f9f9;stroke:#f9f9f9;stroke-width:0;stroke-linecap:butt;stroke-linejoin:miter;stroke-miterlimit:4;stroke-dasharray:none;stroke-opacity:1"
         d="m 109.471,130.63273 10.26707,4.98722 c 0.64346,0.388 0.76371,1.27796 -0.0162,1.80271 l -10.61388,5.05146 c 0,0 -0.86806,0.1163 -0.92294,-0.73972 -0.14516,-2.26468 0.066,-7.38258 0.0545,-10.69519 -8.9e-4,-0.91391 0.62744,-0.77981 1.23147,-0.40648 z"
         id="path4524"
         inkscape:connector-curvature="0"
         sodipodi:nodetypes="ccccscc" />
      <path
         sodipodi:nodetypes="ccccscc"
         inkscape:connector-curvature="0"
         id="path4526"
         d="m 82.845968,130.63273 -10.26707,4.98722 c -0.64346,0.388 -0.76371,1.27796 0.0162,1.80271 l 10.61388,5.05146 c 0,0 0.86806,0.1163 0.92294,-0.73972 0.14516,-2.26468 -0.066,-7.38258 -0.0545,-10.69519 8.9e-4,-0.91391 -0.62744,-0.77981 -1.23147,-0.40648 z"
         style="fill:#f9f9f9;stroke:#f9f9f9;stroke-width:0;stroke-linecap:butt;stroke-linejoin:miter;stroke-miterlimit:4;stroke-dasharray:none;stroke-opacity:1" />
      <path
         style="fill:#f9f9f9;stroke:#f9f9f9;stroke-width:0;stroke-linecap:butt;stroke-linejoin:miter;stroke-miterlimit:4;stroke-dasharray:none;stroke-opacity:1"
         d="m 90.912169,148.65702 4.987218,10.26708 c 0.388005,0.64345 1.277965,0.7637 1.802719,-0.0162 l 5.051464,-10.61389 c 0,0 0.1163,-0.86806 -0.73972,-0.92294 -2.264686,-0.14516 -7.382592,0.066 -10.695196,0.0545 -0.913909,-8.9e-4 -0.779809,0.62744 -0.406485,1.23147 z"
         id="path4528"
         inkscape:connector-curvature="0"
         sodipodi:nodetypes="ccccscc" />
    </g>
  </g>
</svg>
